{"title":"If I had You (2006) x264 RB58.mp4","uid":13035410,"size":1059809513,"categoryP":"video","categoryS":"tv_shows","magnet":"?xt=urn:btih:311073f390777ee26dcda4d9105d73d339bb247a&amp;dn=If+I+had+You+%282006%29+x264+RB58.mp4&amp;tr=udp%3A%2F%2Ftracker.leechers-paradise.org%3A6969&amp;tr=udp%3A%2F%2Fzer0day.ch%3A1337&amp;tr=udp%3A%2F%2Fopen.demonii.com%3A1337&amp;tr=udp%3A%2F%2Ftracker.coppersurfer.tk%3A6969&amp;tr=udp%3A%2F%2Fexodus.desync.com%3A6969","seeders":0,"leechers":1,"uploader":"RedBaron58","files":1,"time":1450474726,"description":"If I Had You - (2006 TV Movies) x264 mp4\r\n \nhttp://www.imdb.com/title/tt0789779/\r\n\r\nTrailer:\r\n\r\n\r\nPlease be patient My intial upload speed is limited.\r\nThank you for your kind comments and feedback on my other torrents, your feedback is welcome.\r\n\r\n\r\nAbout the Episode:\r\nSarah Parish stars in this one-off crime drama as DI Sharon Myers, who returns to her hometown \r\nin the picturesque Peak District to escape the hustle of the city and spend time with her childhood friend. \r\nHowever, her new rural life takes an unexpected turn when the body of a schoolteacher is discovered \r\nin a nearby reservoir. \r\n \r\nAlso starring Paul McGann, Mark Benton and Poppy Miller\r\n\r\n\r\nI hope you enjoy.\r\n\r\n\r\nTechnical:\r\n\r\nGeneral\r\nComplete name                            : G:If I had You (2006) x264 RB58.mp4\r\nFormat                                   : MPEG-4\r\nFormat profile                           : Base Media\r\nCodec ID                                 : isom\r\nFile size                                : 1 011 MiB\r\nDuration                                 : 1h 32mn\r\nOverall bit rate                         : 1 523 Kbps\r\nWriting application                      : Lavf54.63.104\r\n\r\nVideo\r\nID                                       : 1\r\nFormat                                   : AVC\r\nFormat/Info                              : Advanced Video Codec\r\nFormat profile                           :   \r\nFormat settings, CABAC                   : Yes\r\nFormat settings, ReFrames                : 4 frames\r\nCodec ID                                 : avc1\r\nCodec ID/Info                            : Advanced Video Coding\r\nDuration                                 : 1h 32mn\r\nBit rate                                 : 1 400 Kbps\r\nWidth                                    : 832 pixels\r\nHeight                                   : 468 pixels\r\nDisplay aspect ratio                     : 16:9\r\nFrame rate mode                          : Variable\r\nFrame rate                               : 25.000 fps\r\nMinimum frame rate                       : 6.250 fps\r\nMaximum frame rate                       : 25.000 fps\r\nColor space                              : YUV\r\nChroma subsampling                       : 4:2:0\r\nBit depth                                : 8 bits\r\nScan type                                : Progressive\r\nBits/(Pixel*Frame)                       : 0.144\r\nStream size                              : 929 MiB (92%)\r\nWriting library                          : x264 core 123 r2189 35cf912\r\nEncoding settings                        : cabac=1 / ref=3 / deblock=1:0:0\r\n\r\nAudio\r\nID                                       : 2\r\nFormat                                   : AAC\r\nFormat/Info                              : Advanced Audio Codec\r\nFormat profile                           : LC\r\nCodec ID                                 : 40\r\nDuration                                 : 1h 32mn\r\nBit rate mode                            : Constant\r\nBit rate                                 : 114 Kbps\r\nChannel(s)                               : 2 channels\r\nChannel positions                        : Front: L R\r\nSampling rate                            : 48.0 KHz\r\nCompression mode                         : Lossy\r\nStream size                              : 75.9 MiB (8%)","torrent":{"xt":"urn:btih:311073f390777ee26dcda4d9105d73d339bb247a","amp;dn":"If+I+had+You+%282006%29+x264+RB58.mp4","amp;tr":["udp%3A%2F%2Ftracker.leechers-paradise.org%3A6969","udp%3A%2F%2Fzer0day.ch%3A1337","udp%3A%2F%2Fopen.demonii.com%3A1337","udp%3A%2F%2Ftracker.coppersurfer.tk%3A6969","udp%3A%2F%2Fexodus.desync.com%3A6969"],"infoHash":"311073f390777ee26dcda4d9105d73d339bb247a","infoHashBuffer":{"type":"Buffer","data":[49,16,115,243,144,119,126,226,109,205,164,217,16,93,115,211,57,187,36,122]},"announce":[],"urlList":[]}}